<svg id="Layer_1" data-name="Layer 1" xmlns="http://www.w3.org/2000/svg" viewBox="0 0 394.11 394.12"><defs><style>.cls-1{font-size:66px;fill:#fff;font-family:NexaBold, Nexa Bold;}</style></defs><text class="cls-1" transform="translate(135.07 65.38) rotate(-10.85)">W</text><text class="cls-1" transform="translate(202.21 54.69) rotate(10.32)">E</text><text class="cls-1" transform="translate(240.52 62.75) rotate(20.65)"> </text><text class="cls-1" transform="translate(251.82 65.07) rotate(31.93)">D</text><text class="cls-1" transform="matrix(0.63, 0.77, -0.77, 0.63, 289.59, 87.62)">O</text><text class="cls-1" transform="translate(319.51 126.86) rotate(62.84)"> </text><text class="cls-1" transform="matrix(0.3, 0.96, -0.96, 0.3, 325.93, 136.57)">F</text><text class="cls-1" transform="translate(336.22 172.9) rotate(83.65)">I</text><text class="cls-1" transform="translate(339.02 187.73) rotate(93.98)">L</text><text class="cls-1" transform="matrix(-0.38, 0.93, -0.93, -0.38, 338.48, 223.52)">M</text><text class="cls-1" transform="translate(315.95 273.13) rotate(125.36)"> </text><text class="cls-1" transform="matrix(-0.72, 0.69, -0.69, -0.72, 310.66, 283.44)">R</text><text class="cls-1" transform="translate(280.69 312.41) rotate(152.31)">E</text><text class="cls-1" transform="translate(247.28 331.14) rotate(169.47)">A</text><text class="cls-1" transform="matrix(-0.99, -0.11, 0.11, -0.99, 200.24, 339.3)">L</text><text class="cls-1" transform="matrix(-0.93, -0.36, 0.36, -0.93, 164.43, 335.6)">L</text><text class="cls-1" transform="translate(137.59 326.98) rotate(-146.08)">Y</text><text class="cls-1" transform="translate(101.98 301.37) rotate(-134.95)"> </text><text class="cls-1" transform="translate(91 296.64) rotate(-118.95)">W</text><text class="cls-1" transform="translate(60.02 236.2) rotate(-97.56)">E</text><text class="cls-1" transform="matrix(0.13, -0.99, 0.99, 0.13, 54.77, 198.04)">L</text><text class="cls-1" transform="matrix(0.37, -0.93, 0.93, 0.37, 59.03, 162.3)">L</text></svg>